<?xml version="1.0" encoding="UTF-8"?>
<!DOCTYPE svg PUBLIC "-//W3C//DTD SVG 1.1//EN" "http://www.w3.org/Graphics/SVG/1.1/DTD/svg11.dtd">
<svg xmlns="http://www.w3.org/2000/svg" version="1.1" width="1024px" height="1024px" style="shape-rendering:geometricPrecision; text-rendering:geometricPrecision; image-rendering:optimizeQuality; fill-rule:evenodd; clip-rule:evenodd" xmlns:xlink="http://www.w3.org/1999/xlink">
<g><path style="opacity:1" fill="#101010" d="M -0.5,-0.5 C 340.833,-0.5 682.167,-0.5 1023.5,-0.5C 1023.5,340.833 1023.5,682.167 1023.5,1023.5C 682.167,1023.5 340.833,1023.5 -0.5,1023.5C -0.5,682.167 -0.5,340.833 -0.5,-0.5 Z"/></g>
<g><path style="opacity:1" fill="#111111" d="M 826.5,657.5 C 824.958,658.163 823.291,658.83 821.5,659.5C 821.137,660.183 820.804,660.85 820.5,661.5C 807.725,648.221 796.225,633.888 786,618.5C 779.958,612.127 774.292,605.46 769,598.5C 762.086,565.767 756.752,532.767 753,499.5C 750.044,482.426 740.544,470.593 724.5,464C 716.245,461.68 707.912,459.68 699.5,458C 686.388,454.628 679.888,446.128 680,432.5C 679.333,428.167 679.333,423.833 680,419.5C 685.83,412.842 689.83,405.175 692,396.5C 696.214,392.618 699.214,387.952 701,382.5C 700.076,370.262 699.409,357.928 699,345.5C 697.897,340.628 696.23,335.962 694,331.5C 689.365,325.033 684.198,319.033 678.5,313.5C 681.505,299.012 676.172,288.845 662.5,283C 647.669,280.166 637.169,285.666 631,299.5C 630.667,304.833 630.333,310.167 630,315.5C 620.194,322.436 613.86,331.77 611,343.5C 610.474,356.581 609.807,369.581 609,382.5C 610.492,388.153 613.492,392.82 618,396.5C 620.695,404.891 624.695,412.558 630,419.5C 631.184,429.546 629.85,439.212 626,448.5C 623.795,451.04 621.295,453.207 618.5,455C 610.007,457.957 601.34,460.29 592.5,462C 572.188,467.641 560.354,480.808 557,501.5C 553.485,534.81 548.152,567.81 541,600.5C 523.833,621.667 506.667,642.833 489.5,664C 481.857,665.267 474.19,666.6 466.5,668C 459.723,672.501 457.723,678.667 460.5,686.5C 457.552,686.223 454.719,686.556 452,687.5C 451.056,690.347 451.556,692.847 453.5,695C 460.823,698.247 468.489,700.081 476.5,700.5C 460.808,725.6 466.475,744.433 493.5,757C 502.217,760.429 511.217,762.763 520.5,764C 557.228,766.045 593.228,761.878 628.5,751.5C 661.964,759.971 695.964,764.471 730.5,765C 631.092,842.663 521.092,862.329 400.5,824C 303.146,787.314 234.646,720.814 195,624.5C 158.202,521.272 167.535,422.606 223,328.5C 290.549,225.96 386.049,173.293 509.5,170.5C 643.443,173.019 743.943,231.685 811,346.5C 854.272,429.491 862.272,515.825 835,605.5C 829.997,621.169 824.163,636.503 817.5,651.5C 818.951,655.731 821.951,657.731 826.5,657.5 Z"/></g>
<g><path style="opacity:1" fill="#cda354" d="M 826.5,657.5 C 821.951,657.731 818.951,655.731 817.5,651.5C 824.163,636.503 829.997,621.169 835,605.5C 862.272,515.825 854.272,429.491 811,346.5C 743.943,231.685 643.443,173.019 509.5,170.5C 386.049,173.293 290.549,225.96 223,328.5C 167.535,422.606 158.202,521.272 195,624.5C 234.646,720.814 303.146,787.314 400.5,824C 521.092,862.329 631.092,842.663 730.5,765C 695.964,764.471 661.964,759.971 628.5,751.5C 593.228,761.878 557.228,766.045 520.5,764C 511.217,762.763 502.217,760.429 493.5,757C 466.475,744.433 460.808,725.6 476.5,700.5C 468.489,700.081 460.823,698.247 453.5,695C 451.556,692.847 451.056,690.347 452,687.5C 454.719,686.556 457.552,686.223 460.5,686.5C 457.723,678.667 459.723,672.501 466.5,668C 474.19,666.6 481.857,665.267 489.5,664C 506.667,642.833 523.833,621.667 541,600.5C 548.152,567.81 553.485,534.81 557,501.5C 560.354,480.808 572.188,467.641 592.5,462C 601.34,460.29 610.007,457.957 618.5,455C 621.295,453.207 623.795,451.04 626,448.5C 629.85,439.212 631.184,429.546 630,419.5C 624.695,412.558 620.695,404.891 618,396.5C 613.492,392.82 610.492,388.153 609,382.5C 609.807,369.581 610.474,356.581 611,343.5C 613.86,331.77 620.194,322.436 630,315.5C 630.333,310.167 630.667,304.833 631,299.5C 637.169,285.666 647.669,280.166 662.5,283C 676.172,288.845 681.505,299.012 678.5,313.5C 684.198,319.033 689.365,325.033 694,331.5C 696.23,335.962 697.897,340.628 699,345.5C 699.409,357.928 700.076,370.262 701,382.5C 699.214,387.952 696.214,392.618 692,396.5C 689.83,405.175 685.83,412.842 680,419.5C 679.333,423.833 679.333,428.167 680,432.5C 679.888,446.128 686.388,454.628 699.5,458C 707.912,459.68 716.245,461.68 724.5,464C 740.544,470.593 750.044,482.426 753,499.5C 756.752,532.767 762.086,565.767 769,598.5C 774.292,605.46 779.958,612.127 786,618.5C 796.225,633.888 807.725,648.221 820.5,661.5C 821.29,662.794 822.29,663.961 823.5,665C 829.848,665.918 836.181,666.918 842.5,668C 846.333,669.167 848.833,671.667 850,675.5C 850.499,679.152 850.665,682.818 850.5,686.5C 853.167,686.5 855.833,686.5 858.5,686.5C 858.98,689.685 858.314,692.519 856.5,695C 849.052,697.687 841.385,699.52 833.5,700.5C 844.964,714.444 845.464,728.777 835,743.5C 827.499,750.838 818.665,756.005 808.5,759C 803.246,760.647 797.913,761.98 792.5,763C 778.536,764.429 764.536,765.429 750.5,766C 704.099,805.37 651.099,832.37 591.5,847C 475.447,870.154 372.113,844.154 281.5,769C 193.325,688.871 153.491,589.037 162,469.5C 178.201,348.49 239.034,257.99 344.5,198C 437.298,151.503 532.964,144.837 631.5,178C 725.653,212.817 793.487,275.984 835,367.5C 866.547,443.81 871.213,521.81 849,601.5C 843.403,621.013 835.903,639.68 826.5,657.5 Z"/></g>
<g><path style="opacity:1" fill="#6d7463" d="M 317.5,738.5 C 320.85,738.335 324.183,738.502 327.5,739C 328.056,739.383 328.389,739.883 328.5,740.5C 325.482,740.665 322.482,740.498 319.5,740C 318.584,739.722 317.918,739.222 317.5,738.5 Z"/></g>
<g><path style="opacity:1" fill="#cda354" d="M 328.5,740.5 C 328.389,739.883 328.056,739.383 327.5,739C 324.183,738.502 320.85,738.335 317.5,738.5C 312.821,738.666 308.155,738.499 303.5,738C 301.714,737.215 300.214,736.049 299,734.5C 297.531,731.416 295.698,728.583 293.5,726C 287.137,725.609 280.803,724.942 274.5,724C 262.947,717.33 260.447,708.164 267,696.5C 269.376,693.955 271.876,691.622 274.5,689.5C 262.219,675.05 249.386,661.05 236,647.5C 226.667,635.5 217.333,623.5 208,611.5C 206.907,607.784 206.407,603.95 206.5,600C 206.502,596.648 206.835,593.482 207.5,590.5C 208.318,578.169 209.151,559.835 210,535.5C 210.539,532.471 211.206,529.471 212,526.5C 212.284,528.886 213.284,529.552 215,528.5C 216.864,530.955 216.698,533.122 214.5,535C 216.64,536.767 216.973,538.767 215.5,541C 216.76,549.58 217.427,558.247 217.5,567C 216.908,580.911 216.908,594.078 217.5,606.5C 228.469,619.645 239.303,632.978 250,646.5C 263.367,660.199 276.367,674.199 289,688.5C 296.662,700.825 302.996,713.825 308,727.5C 312.247,728.985 315.747,727.818 318.5,724C 319.793,723.51 321.127,723.343 322.5,723.5C 321.755,726.93 323.089,728.597 326.5,728.5C 330.507,726.819 334.507,725.153 338.5,723.5C 338.5,725.167 338.5,726.833 338.5,728.5C 340.989,728.702 343.323,728.202 345.5,727C 348.361,724.106 350.861,720.939 353,717.5C 352.597,705.525 348.431,695.025 340.5,686C 330.121,683.896 321.287,679.062 314,671.5C 310.166,666.503 306.833,661.17 304,655.5C 297.634,637.395 290.301,619.728 282,602.5C 274.979,592.646 266.479,584.312 256.5,577.5C 258.167,577.167 259.833,576.833 261.5,576.5C 266.508,577.339 271.508,577.839 276.5,578C 291.864,562.431 299.531,543.598 299.5,521.5C 299.476,517.382 298.809,513.382 297.5,509.5C 303.823,504.01 309.656,498.01 315,491.5C 318.901,484.228 321.735,476.561 323.5,468.5C 326.735,480.338 325.402,491.671 319.5,502.5C 329.992,518.759 344.992,527.925 364.5,530C 378.5,530.667 392.5,530.667 406.5,530C 412.711,528.116 416.544,523.95 418,517.5C 419.408,513.943 420.408,510.276 421,506.5C 421.419,494.152 421.419,481.819 421,469.5C 428.417,479.924 431.917,491.59 431.5,504.5C 430.959,514.037 428.459,523.037 424,531.5C 418.17,537.559 411.003,540.726 402.5,541C 389.167,541.667 375.833,541.667 362.5,541C 341.319,538.748 324.319,529.248 311.5,512.5C 311.842,534.311 306.675,554.644 296,573.5C 292.353,577.982 288.519,582.315 284.5,586.5C 290.327,593.843 295.16,601.843 299,610.5C 303.872,628.13 310.872,644.797 320,660.5C 322.026,664.026 324.859,666.693 328.5,668.5C 331.966,659.566 336.466,651.232 342,643.5C 346.214,639.618 350.714,636.118 355.5,633C 368.764,631.389 382.097,631.056 395.5,632C 406.421,636.251 414.921,643.418 421,653.5C 437.085,684.355 438.751,716.022 426,748.5C 421.348,761.483 412.848,770.983 400.5,777C 364.139,788.322 340.139,776.155 328.5,740.5 Z"/></g>
<g><path style="opacity:1" fill="#121314" d="M 388.5,641.5 C 394.194,642.012 399.194,644.179 403.5,648C 417.875,663.945 424.875,682.778 424.5,704.5C 424.279,718.277 421.779,731.61 417,744.5C 412.392,756.432 404.225,764.766 392.5,769.5C 391.833,769.167 391.167,768.833 390.5,768.5C 403.993,750.733 410.66,730.567 410.5,708C 410.629,683.222 403.296,661.055 388.5,641.5 Z"/></g>
<g><path style="opacity:1" fill="#111213" d="M 280.5,699.5 C 282.624,700.031 284.124,701.365 285,703.5C 286.226,706.952 287.726,710.285 289.5,713.5C 283.961,715.471 279.127,714.471 275,710.5C 274.176,705.482 276.009,701.815 280.5,699.5 Z"/></g>
<g><path style="opacity:1" fill="#0d0f13" d="M 361.5,701.5 C 363.39,701.297 364.89,701.963 366,703.5C 367.237,707.06 367.737,710.727 367.5,714.5C 366.167,714.5 364.833,714.5 363.5,714.5C 363.731,710.007 363.064,705.674 361.5,701.5 Z"/></g>
<g><path style="opacity:1" fill="#111212" d="M 360.5,643.5 C 370.033,642.85 377.866,646.183 384,653.5C 398.833,675.327 403.833,699.327 399,725.5C 397.114,738.845 391.947,750.678 383.5,761C 377.854,766.326 371.187,768.66 363.5,768C 351.419,762.418 343.419,753.251 339.5,740.5C 349.005,738.739 356.671,733.906 362.5,726C 374.999,725.489 380.166,718.989 378,706.5C 376.369,695.56 369.869,690.393 358.5,691C 355.55,686.382 352.216,682.048 348.5,678C 345.618,676.392 342.618,675.059 339.5,674C 341.379,660.439 348.379,650.272 360.5,643.5 Z"/></g>
<g><path style="opacity:1" fill="#d4ab59" d="M 304.5,577.5 C 308.539,580.554 311.373,584.554 313,589.5C 313.979,600.289 313.312,610.956 311,621.5C 307.704,607.003 305.537,592.337 304.5,577.5 Z"/></g>
<g><path style="opacity:1" fill="#cfa556" d="M 426.5,561.5 C 429.261,570.498 428.761,579.498 425,588.5C 424.667,595.167 424.333,601.833 424,608.5C 423.093,613.81 421.427,618.81 419,623.5C 418.667,613.5 418.333,603.5 418,593.5C 409.444,593.033 400.944,591.866 392.5,590C 388.879,588.369 385.879,586.035 383.5,583C 394.5,582.667 405.5,582.333 416.5,582C 420.76,575.647 424.093,568.813 426.5,561.5 Z"/></g>
<g><path style="opacity:1" fill="#cea556" d="M 481.5,471.5 C 492.419,484.236 495.919,498.903 492,515.5C 490.21,524.619 485.877,532.285 479,538.5C 480.05,556.257 476.383,572.923 468,588.5C 468.06,606.254 465.56,623.587 460.5,640.5C 459.136,623.349 458.136,606.183 457.5,589C 464.704,574.685 468.037,559.519 467.5,543.5C 453.736,544.468 441.736,540.468 431.5,531.5C 434.139,530.644 436.806,530.81 439.5,532C 450.536,532.785 461.536,532.452 472.5,531C 482.768,517.945 486.602,503.111 484,486.5C 482.842,481.543 482.008,476.543 481.5,471.5 Z"/></g>
<g><path style="opacity:1" fill="#dbb15b" d="M 243.5,449.5 C 238.014,465.911 238.348,482.244 244.5,498.5C 244.167,499.167 243.833,499.833 243.5,500.5C 241.814,499.143 240.148,497.81 238.5,496.5C 239.793,495.355 240.959,495.689 242,497.5C 242.231,493.524 241.231,489.857 239,486.5C 235.907,487.894 233.241,487.227 231,484.5C 229.926,485.618 228.76,486.618 227.5,487.5C 220.862,498.781 215.862,510.781 212.5,523.5C 212.667,524.167 212.833,524.833 213,525.5C 214.688,523.955 216.688,522.955 219,522.5C 219.333,524.167 219.667,525.833 220,527.5C 221.027,523.392 222.36,519.392 224,515.5C 224.399,515.728 224.565,516.062 224.5,516.5C 222.096,524.685 220.263,533.018 219,541.5C 218.682,563.175 218.182,584.842 217.5,606.5C 216.908,594.078 216.908,580.911 217.5,567C 217.427,558.247 216.76,549.58 215.5,541C 216.973,538.767 216.64,536.767 214.5,535C 216.698,533.122 216.864,530.955 215,528.5C 213.284,529.552 212.284,528.886 212,526.5C 211.206,529.471 210.539,532.471 210,535.5C 209.151,559.835 208.318,578.169 207.5,590.5C 207.09,570.797 207.59,551.13 209,531.5C 212.635,513.9 219.302,497.567 229,482.5C 227.927,472.762 228.427,463.095 230.5,453.5C 230.486,463.303 230.652,473.303 231,483.5C 231.401,481.479 232.568,480.145 234.5,479.5C 235.77,480.562 236.937,481.562 238,482.5C 237.691,471.598 239.025,460.932 242,450.5C 242.333,449.833 242.667,449.167 243,448.5C 243.399,448.728 243.565,449.062 243.5,449.5 Z"/></g>
<g><path style="opacity:1" fill="#caa052" d="M 238.5,496.5 C 237.211,494.752 235.711,494.419 234,495.5C 230.784,502.59 227.617,509.59 224.5,516.5C 224.565,516.062 224.399,515.728 224,515.5C 222.36,519.392 221.027,523.392 220,527.5C 219.667,525.833 219.333,524.167 219,522.5C 216.688,522.955 214.688,523.955 213,525.5C 212.833,524.833 212.667,524.167 212.5,523.5C 215.862,510.781 220.862,498.781 227.5,487.5C 228.76,486.618 229.926,485.618 231,484.5C 233.241,487.227 235.907,487.894 239,486.5C 241.231,489.857 242.231,493.524 242,497.5C 240.959,495.689 239.793,495.355 238.5,496.5 Z"/></g>
<g><path style="opacity:1" fill="#121212" d="M 603.5,469.5 C 604.5,469.5 605.5,469.5 606.5,469.5C 607.144,483.601 611.644,496.268 620,507.5C 638.645,524.419 659.145,526.919 681.5,515C 689.935,508.97 696.101,501.137 700,491.5C 702.157,484.193 703.99,476.86 705.5,469.5C 718.098,471.381 728.598,477.047 737,486.5C 739.434,489.795 741.101,493.462 742,497.5C 745.263,525.274 749.263,552.941 754,580.5C 755.691,588.596 757.691,596.596 760,604.5C 774.432,621.595 788.098,639.262 801,657.5C 806.207,664.375 812.374,670.208 819.5,675C 826.504,675.924 833.504,676.757 840.5,677.5C 839.728,688.102 834.061,692.602 823.5,691C 821.167,690 818.833,689 816.5,688C 796.721,670.286 776.388,653.286 755.5,637C 747.754,629.999 741.587,621.832 737,612.5C 727.11,585.049 722.11,556.716 722,527.5C 721.293,522.955 719.96,518.622 718,514.5C 717.39,522.549 716.39,530.549 715,538.5C 710.94,554.345 706.274,570.012 701,585.5C 696.464,604.737 698.131,623.404 706,641.5C 713.25,653.668 720.75,665.668 728.5,677.5C 712.021,678.703 696.354,682.869 681.5,690C 690.89,690.365 700.223,689.698 709.5,688C 727.167,687.333 744.833,687.333 762.5,688C 780.876,690.94 798.876,695.274 816.5,701C 831.154,709.286 834.654,720.786 827,735.5C 816.281,744.858 803.781,750.358 789.5,752C 742.937,756.704 696.771,754.204 651,744.5C 650.167,744.167 649.333,743.833 648.5,743.5C 687.831,725.51 728.831,712.677 771.5,705C 773.878,704.026 773.544,703.359 770.5,703C 756.714,700.874 743.047,701.541 729.5,705C 708.266,710.301 687.433,716.801 667,724.5C 635.031,717.955 603.198,710.789 571.5,703C 560.869,701.557 550.202,701.224 539.5,702C 535.068,702.623 534.735,703.623 538.5,705C 545.901,706.008 553.234,707.341 560.5,709C 590.283,717.612 620.283,725.279 650.5,732C 604.369,750.646 556.703,756.646 507.5,750C 498.571,747.787 490.738,743.62 484,737.5C 474.75,719.601 479.583,706.767 498.5,699C 537.123,688.089 576.457,683.255 616.5,684.5C 612.487,681.993 608.153,680.16 603.5,679C 597.264,677.421 590.93,676.588 584.5,676.5C 584.491,674.692 584.991,673.025 586,671.5C 596.006,658.492 603.673,644.159 609,628.5C 612.567,612.414 612.234,596.414 608,580.5C 599.687,559.583 594.687,537.917 593,515.5C 591.382,519.068 590.049,522.735 589,526.5C 588.425,556.374 583.092,585.374 573,613.5C 568.318,623.35 561.818,631.85 553.5,639C 533.425,654.383 514.091,670.717 495.5,688C 487.479,693.129 479.979,692.629 473,686.5C 470.219,683.308 470.052,680.142 472.5,677C 480.8,677.25 488.8,675.917 496.5,673C 503.667,664.5 510.833,656 518,647.5C 528.027,632.118 539.027,617.451 551,603.5C 552.532,599.238 553.865,594.905 555,590.5C 560.002,557.817 565.002,525.15 570,492.5C 572.729,486.437 576.896,481.603 582.5,478C 589.195,474.093 596.195,471.26 603.5,469.5 Z"/></g>
<g><path style="opacity:1" fill="#121212" d="M 594.5,574.5 C 605.261,599.6 603.427,623.934 589,647.5C 582.958,657.085 576.791,666.585 570.5,676C 562.464,676.277 554.464,676.943 546.5,678C 536.122,680.143 525.789,682.143 515.5,684C 536.514,668.328 556.348,651.161 575,632.5C 584.583,614.252 591.083,594.918 594.5,574.5 Z"/></g>
<g><path style="opacity:1" fill="#121213" d="M 714.5,574.5 C 718.109,588.509 722.275,602.509 727,616.5C 729.412,621.659 732.079,626.659 735,631.5C 753.61,649.783 773.11,666.95 793.5,683C 775.76,679.962 757.927,677.462 740,675.5C 732.333,663.5 724.667,651.5 717,639.5C 709.945,625.264 707.612,610.264 710,594.5C 711.199,587.744 712.699,581.077 714.5,574.5 Z"/></g>
<g><path style="opacity:1" fill="#121112" d="M 641.5,429.5 C 650.805,433.393 660.138,433.393 669.5,429.5C 667.681,448.899 676.014,461.232 694.5,466.5C 693.578,502.259 675.578,516.759 640.5,510C 630.578,505.746 623.745,498.579 620,488.5C 616.937,481.451 615.603,474.117 616,466.5C 634.347,461.186 642.847,448.853 641.5,429.5 Z"/></g>
<g><path style="opacity:1" fill="#cda354" d="M 243.5,449.5 C 243.565,449.062 243.399,448.728 243,448.5C 242.667,449.167 242.333,449.833 242,450.5C 239.025,460.932 237.691,471.598 238,482.5C 236.937,481.562 235.77,480.562 234.5,479.5C 232.568,480.145 231.401,481.479 231,483.5C 230.652,473.303 230.486,463.303 230.5,453.5C 236.67,433.498 249.337,419.331 268.5,411C 277.771,408.281 287.104,405.947 296.5,404C 313.928,396.546 329.761,386.713 344,374.5C 347.002,362.989 349.169,351.323 350.5,339.5C 348.723,327.172 347.056,314.838 345.5,302.5C 345.931,275.791 358.264,256.957 382.5,246C 398.711,241.672 415.045,241.338 431.5,245C 444.633,248.2 457.633,251.866 470.5,256C 477.049,258.779 479.216,263.612 477,270.5C 475.314,276.149 472.814,281.316 469.5,286C 470.932,293.893 472.599,301.727 474.5,309.5C 474.333,310.833 474.167,312.167 474,313.5C 472.764,314.399 471.93,315.566 471.5,317C 474.529,324.225 477.696,331.392 481,338.5C 482.494,343.526 481.327,347.692 477.5,351C 474.792,352.069 472.125,353.236 469.5,354.5C 468.714,360.144 467.381,365.644 465.5,371C 469.144,392.017 460.478,400.017 439.5,395C 436.646,392.734 434.813,393.234 434,396.5C 433.333,399.5 433.333,402.5 434,405.5C 447.913,416.039 463.413,423.206 480.5,427C 497.217,436.746 507.383,451.246 511,470.5C 511.776,483.215 511.276,495.881 509.5,508.5C 512.51,519.034 515.01,529.701 517,540.5C 518.888,561.81 517.221,582.81 512,603.5C 509.938,599.312 508.271,594.979 507,590.5C 506.667,574.833 506.333,559.167 506,543.5C 503.634,531.703 500.801,520.036 497.5,508.5C 501.556,493.088 501.389,477.755 497,462.5C 488.087,441.367 472.087,431.034 449,431.5C 443.713,431.382 438.546,432.049 433.5,433.5C 432.167,432.833 432.167,432.167 433.5,431.5C 436.994,429.921 440.327,428.087 443.5,426C 439.167,423.167 434.833,420.333 430.5,417.5C 427.454,420.385 424.954,423.718 423,427.5C 421.89,429.037 420.39,429.703 418.5,429.5C 420.282,415.531 421.449,401.531 422,387.5C 414.004,384.179 407.337,379.179 402,372.5C 398.283,364.403 397.616,356.07 400,347.5C 401.993,363.341 410.493,373.841 425.5,379C 433.206,381.385 441.039,383.218 449,384.5C 451.352,384.695 453.352,384.028 455,382.5C 456.116,370.815 457.449,359.148 459,347.5C 462.294,344.603 466.128,342.936 470.5,342.5C 467.189,333.043 463.189,323.876 458.5,315C 459.32,312.846 460.82,311.346 463,310.5C 463.125,303.373 462.125,296.373 460,289.5C 459.167,288.667 458.333,287.833 457.5,287C 452.9,285.683 448.234,284.683 443.5,284C 441.984,282.103 441.317,279.936 441.5,277.5C 447.925,277.87 454.258,277.37 460.5,276C 464.039,273.757 465.539,270.59 465,266.5C 442.962,257.949 420.129,253.782 396.5,254C 375.863,257.972 363.029,270.138 358,290.5C 357.333,298.167 357.333,305.833 358,313.5C 363.254,336.985 361.587,359.985 353,382.5C 341.532,392.573 328.865,400.907 315,407.5C 314.555,409.594 315.388,411.094 317.5,412C 320.618,413.147 323.618,414.48 326.5,416C 312.594,417.299 298.594,417.966 284.5,418C 265.552,421.788 251.886,432.288 243.5,449.5 Z"/></g>
<g><path style="opacity:1" fill="#cea455" d="M 345.5,420.5 C 360.34,420.398 375.006,421.898 389.5,425C 395.905,426.362 399.905,430.195 401.5,436.5C 399.926,437.631 398.259,437.798 396.5,437C 384.988,433.469 373.322,430.469 361.5,428C 358.167,427 354.833,426 351.5,425C 348.823,424.186 346.823,422.686 345.5,420.5 Z"/></g>
<g><path style="opacity:1" fill="#111112" d="M 661.5,349.5 C 665.258,354.435 669.258,359.268 673.5,364C 678.433,368.132 684.1,370.632 690.5,371.5C 691.772,378.242 689.938,383.909 685,388.5C 681.069,399.539 675.236,409.373 667.5,418C 654.821,425.227 644.321,422.727 636,410.5C 632.621,404.373 629.621,398.039 627,391.5C 624.277,388.443 621.944,385.11 620,381.5C 619.333,378.833 619.333,376.167 620,373.5C 631.06,369.817 641.56,364.983 651.5,359C 655.334,356.332 658.667,353.165 661.5,349.5 Z"/></g>
<g><path style="opacity:1" fill="#5e6056" d="M 621.5,348.5 C 620.911,352.971 621.577,356.971 623.5,360.5C 622.791,361.404 621.791,361.737 620.5,361.5C 620.182,356.968 620.515,352.634 621.5,348.5 Z"/></g>
<g><path style="opacity:1" fill="#121212" d="M 623.5,360.5 C 621.577,356.971 620.911,352.971 621.5,348.5C 624.132,335.025 631.799,325.525 644.5,320C 667.713,316.215 682.213,325.715 688,348.5C 688.827,352.541 688.66,356.541 687.5,360.5C 684.5,359 681.5,357.5 678.5,356C 672.169,350.149 666.669,343.649 662,336.5C 650.838,347.158 638.005,355.158 623.5,360.5 Z"/></g>
<g><path style="opacity:1" fill="#cfa557" d="M 388.5,299.5 C 397.477,297.98 404.31,300.98 409,308.5C 410.08,311.237 409.246,312.904 406.5,313.5C 402.661,310.831 398.495,308.831 394,307.5C 390.599,307.698 388.266,309.365 387,312.5C 385.865,322.437 389.365,330.27 397.5,336C 399.488,336.18 401.488,336.014 403.5,335.5C 402.691,341.41 399.358,343.577 393.5,342C 381.342,335.519 376.175,325.352 378,311.5C 379.963,306.044 383.463,302.044 388.5,299.5 Z"/></g>
<g><path style="opacity:1" fill="#111112" d="M 651.5,293.5 C 659.292,292.487 664.792,295.487 668,302.5C 668.808,304.579 668.641,306.579 667.5,308.5C 659.167,307.167 650.833,307.167 642.5,308.5C 641.135,300.898 644.135,295.898 651.5,293.5 Z"/></g>
</svg>
